# xmcd
#
# Track frame offsets:
#	150
#	12472
#	27923
#	45335
#	61592
#	77878
#	95261
#	112974
#	129216
#	148888
#	163924
#	178865
#	189657
#	206242
#	226932
#	244928
#	260627
#	278946
#
# Disc length: 3958 seconds
#
# Revision: 3
# Processed by: cddbd v1.5.1PL0 Copyright (c) Steve Scherf et al.
# Submitted via: audiograbber 1.83.01
#
DISCID=fe0f7412
DTITLE=2001-06 Country Radio - 2001-06 Country Radio
DYEAR=2001
DGENRE=Country
TTITLE0=Toby Keith - I'm Just Talking About Tongiht
TTITLE1=Phil Vassar - Six Pack Summer
TTITLE2=Dixie Chicks - Heartbreak Town
TTITLE3=Travis Tritt - Love Of A Woman
TTITLE4=Jessica Andrews - Helplessly, Hopelessly
TTITLE5=Chely Wright - Never Love You Enough
TTITLE6=Billy Ray Cyrus - Southern Rain
TTITLE7=Pan Tillis - Thunder and Roses
TTITLE8=Jeff Carson - Real Life(I Never Was The Same Again)
TTITLE9=John Anderson - It's Ain't Easy Being Me
TTITLE10=Coley McCabe - Who I Am To You
TTITLE11=Neal Coty - Right Down Through The Middle Of Us
TTITLE12=Rebel Hearts - Wrangler Walk
TTITLE13=Lucinda Williams - Essence
TTITLE14=Delbert McClinton - Birmingham Tonight
TTITLE15=Marcia Ball - Thibodaux, Louisiana
TTITLE16=Tom Gillam - Just Like Rain
TTITLE17=Gary Myrick - Honk If You Love Jesus
EXTD=
EXTT0=
EXTT1=
EXTT2=
EXTT3=
EXTT4=
EXTT5=
EXTT6=
EXTT7=
EXTT8=
EXTT9=
EXTT10=
EXTT11=
EXTT12=
EXTT13=
EXTT14=
EXTT15=
EXTT16=
EXTT17=
PLAYORDER=
